<svg xmlns="http://www.w3.org/2000/svg" width="1280" height="300"><path d="M640,149L883,-94L640,-94Z" fill="#3f81fa" stroke="#3f81fa" stroke-width="1.51"/><path d="M640,149L883,149L883,-94Z" fill="#2f50f3" stroke="#2f50f3" stroke-width="1.51"/><path d="M883,-94L640,-337L640,-94Z" fill="#3f81fa" stroke="#3f81fa" stroke-width="1.51"/><path d="M883,-94L883,-337L640,-337Z" fill="#3f8af4" stroke="#3f8af4" stroke-width="1.51"/><path d="M883,149L1126,-94L883,-94Z" fill="#379ce9" stroke="#379ce9" stroke-width="1.51"/><path d="M883,-94L1126,-94L883,-337Z" fill="#379ce9" stroke="#379ce9" stroke-width="1.51"/><path d="M883,149L1126,149L1126,-94Z" fill="#375aee" stroke="#375aee" stroke-width="1.51"/><path d="M640,-94L396,-94L640,149Z" fill="#3c7cff" stroke="#3c7cff" stroke-width="1.51"/><path d="M640,-337L396,-94L640,-94Z" fill="#3c7cff" stroke="#3c7cff" stroke-width="1.51"/><path d="M396,-94L396,149L640,149Z" fill="#1443ff" stroke="#1443ff" stroke-width="1.51"/><path d="M396,149L640,393L640,149Z" fill="#3950ea" stroke="#3950ea" stroke-width="1.51"/><path d="M640,149L640,393L883,149Z" fill="#3f56e5" stroke="#3f56e5" stroke-width="1.51"/><path d="M883,149L883,393L1126,149Z" fill="#4372d4" stroke="#4372d4" stroke-width="1.51"/><path d="M640,393L883,393L883,149Z" fill="#3734f4" stroke="#3734f4" stroke-width="1.51"/><path d="M1126,-94L1126,-337L883,-337Z" fill="#3e93ef" stroke="#3e93ef" stroke-width="1.51"/><path d="M640,-337L396,-337L396,-94Z" fill="#3980ff" stroke="#3980ff" stroke-width="1.51"/><path d="M883,393L1126,393L1126,149Z" fill="#3f40ef" stroke="#3f40ef" stroke-width="1.51"/><path d="M396,149L396,393L640,393Z" fill="#1d20ff" stroke="#1d20ff" stroke-width="1.51"/><path d="M1126,-94L1369,-94L1126,-337Z" fill="#4580fb" stroke="#4580fb" stroke-width="1.51"/><path d="M1126,149L1369,-94L1126,-94Z" fill="#4580fb" stroke="#4580fb" stroke-width="1.51"/><path d="M1369,149L1369,-94L1126,149Z" fill="#2637ff" stroke="#2637ff" stroke-width="1.51"/><path d="M1126,393L1369,149L1126,149Z" fill="#4454e5" stroke="#4454e5" stroke-width="1.51"/><path d="M396,-337L153,-94L396,-94Z" fill="#3288ff" stroke="#3288ff" stroke-width="1.51"/><path d="M396,-94L153,-94L396,149Z" fill="#3288ff" stroke="#3288ff" stroke-width="1.51"/><path d="M396,149L153,149L396,393Z" fill="#365dea" stroke="#365dea" stroke-width="1.51"/><path d="M153,-94L153,149L396,149Z" fill="#235fff" stroke="#235fff" stroke-width="1.51"/><path d="M640,393L640,636L883,393Z" fill="#2c24fa" stroke="#2c24fa" stroke-width="1.51"/><path d="M883,393L883,636L1126,393Z" fill="#424ce9" stroke="#424ce9" stroke-width="1.51"/><path d="M396,393L640,636L640,393Z" fill="#1c17ff" stroke="#1c17ff" stroke-width="1.51"/><path d="M640,636L883,636L883,393Z" fill="#3734f4" stroke="#3734f4" stroke-width="1.51"/><path d="M1369,-94L1369,-337L1126,-337Z" fill="#4777ff" stroke="#4777ff" stroke-width="1.51"/><path d="M1126,636L1369,393L1126,393Z" fill="#3220fa" stroke="#3220fa" stroke-width="1.51"/><path d="M1126,393L1369,393L1369,149Z" fill="#2900ff" stroke="#2900ff" stroke-width="1.51"/><path d="M396,-337L153,-337L153,-94Z" fill="#3098ff" stroke="#3098ff" stroke-width="1.51"/><path d="M883,636L1126,636L1126,393Z" fill="#3f40ef" stroke="#3f40ef" stroke-width="1.51"/><path d="M396,393L396,636L640,636Z" fill="#1d20ff" stroke="#1d20ff" stroke-width="1.51"/><path d="M153,149L153,393L396,393Z" fill="#3145ff" stroke="#3145ff" stroke-width="1.51"/><path d="M153,393L396,636L396,393Z" fill="#1f30ff" stroke="#1f30ff" stroke-width="1.51"/><path d="M1369,-94L1612,-94L1369,-337Z" fill="#4777ff" stroke="#4777ff" stroke-width="1.51"/><path d="M1369,149L1612,-94L1369,-94Z" fill="#4777ff" stroke="#4777ff" stroke-width="1.51"/><path d="M1612,149L1612,-94L1369,149Z" fill="#2637ff" stroke="#2637ff" stroke-width="1.51"/><path d="M1369,393L1612,149L1369,149Z" fill="#424aea" stroke="#424aea" stroke-width="1.51"/><path d="M1369,393L1612,393L1612,149Z" fill="#2900ff" stroke="#2900ff" stroke-width="1.51"/><path d="M1126,636L1369,636L1369,393Z" fill="#2900ff" stroke="#2900ff" stroke-width="1.51"/><path d="M153,-337L-90,-94L153,-94Z" fill="#1fb7ff" stroke="#1fb7ff" stroke-width="1.51"/><path d="M153,-94L-90,-94L153,149Z" fill="#1fb7ff" stroke="#1fb7ff" stroke-width="1.51"/><path d="M153,149L-90,149L153,393Z" fill="#3c8cea" stroke="#3c8cea" stroke-width="1.51"/><path d="M-90,-94L-90,149L153,149Z" fill="#328dff" stroke="#328dff" stroke-width="1.51"/><path d="M-90,393L153,636L153,393Z" fill="#4268ff" stroke="#4268ff" stroke-width="1.51"/><path d="M153,393L153,636L396,636Z" fill="#3145ff" stroke="#3145ff" stroke-width="1.51"/><path d="M1612,-94L1612,-337L1369,-337Z" fill="#4777ff" stroke="#4777ff" stroke-width="1.51"/><path d="M1369,636L1612,393L1369,393Z" fill="#2900ff" stroke="#2900ff" stroke-width="1.51"/><path d="M153,-337L-90,-337L-90,-94Z" fill="#00c5ff" stroke="#00c5ff" stroke-width="1.51"/><path d="M-90,149L-90,393L153,393Z" fill="#4777ff" stroke="#4777ff" stroke-width="1.51"/><path d="M1369,636L1612,636L1612,393Z" fill="#2900ff" stroke="#2900ff" stroke-width="1.51"/><path d="M-90,393L-90,636L153,636Z" fill="#4777ff" stroke="#4777ff" stroke-width="1.51"/><path d="M-90,-337L-333,-94L-90,-94Z" fill="#00c5ff" stroke="#00c5ff" stroke-width="1.51"/><path d="M-90,-94L-333,-94L-90,149Z" fill="#00c5ff" stroke="#00c5ff" stroke-width="1.51"/><path d="M-90,149L-333,149L-90,393Z" fill="#399aea" stroke="#399aea" stroke-width="1.51"/><path d="M-90,393L-333,393L-90,636Z" fill="#4777ff" stroke="#4777ff" stroke-width="1.51"/><path d="M-333,-94L-333,149L-90,149Z" fill="#328dff" stroke="#328dff" stroke-width="1.51"/><path d="M-90,-337L-333,-337L-333,-94Z" fill="#00c5ff" stroke="#00c5ff" stroke-width="1.51"/><path d="M-333,149L-333,393L-90,393Z" fill="#4777ff" stroke="#4777ff" stroke-width="1.51"/><path d="M-333,393L-333,636L-90,636Z" fill="#4777ff" stroke="#4777ff" stroke-width="1.51"/></svg>